<svg id="Capa_1" data-name="Capa 1" xmlns="http://www.w3.org/2000/svg" width="737.57" height="451.85" viewBox="0 0 737.57 451.85" fill="#ffd400">
  <title>arrows-3x</title>
  <g>
    <path d="M265,227.5a31.55,31.55,0,0,1-9.26,22.37L61.41,444.15a31.64,31.64,0,1,1-44.75-44.75L188.57,227.5,16.66,55.59A31.64,31.64,0,0,1,61.41,10.85L255.7,205.13A31.55,31.55,0,0,1,265,227.5Z" transform="translate(-7.39 -1.58)"/>
    <path d="M505,227.5a31.55,31.55,0,0,1-9.26,22.37L301.41,444.15a31.64,31.64,0,1,1-44.75-44.75L428.57,227.5,256.66,55.59a31.64,31.64,0,1,1,44.75-44.74L495.7,205.13A31.55,31.55,0,0,1,505,227.5Z" transform="translate(-7.39 -1.58)"/>
    <path d="M745,227.5a31.55,31.55,0,0,1-9.26,22.37L541.41,444.15a31.64,31.64,0,1,1-44.75-44.75L668.57,227.5,496.66,55.59a31.64,31.64,0,0,1,44.75-44.74L735.7,205.13A31.55,31.55,0,0,1,745,227.5Z" transform="translate(-7.39 -1.58)"/>
  </g>
</svg>
