<?xml version="1.0" encoding="iso-8859-1"?>
<!-- Generator: Adobe Illustrator 19.0.0, SVG Export Plug-In . SVG Version: 6.00 Build 0)  -->
<svg version="1.1" id="Capa_1" xmlns="http://www.w3.org/2000/svg" xmlns:xlink="http://www.w3.org/1999/xlink" x="0px" y="0px"
	 viewBox="0 0 512 512" style="enable-background:new 0 0 512 512;" xml:space="preserve" fill="#00b4ff">

		<path d="M192.213,162.133h-60.16c-6.938,0-12.587,5.649-12.587,12.587v26.027c0,6.938,5.649,12.587,12.587,12.587h60.16
			c6.938,0,12.587-5.649,12.587-12.587V174.72C204.8,167.782,199.151,162.133,192.213,162.133z M187.733,196.267h-51.2V179.2h51.2
			V196.267z"/>

		<path d="M179.2,42.667h-34.133c-4.71,0-8.533,3.823-8.533,8.533v119.467c0,4.71,3.823,8.533,8.533,8.533H179.2
			c4.71,0,8.533-3.823,8.533-8.533V51.2C187.733,46.49,183.91,42.667,179.2,42.667z M170.667,162.133H153.6v-102.4h17.067V162.133z"
			/>

		<path d="M179.2,196.267h-34.133c-4.71,0-8.533,3.823-8.533,8.533v19.482c0,12.783,10.402,23.185,23.185,23.185h4.83
			c12.783,0,23.185-10.402,23.185-23.185V204.8C187.733,200.09,183.91,196.267,179.2,196.267z M170.667,224.282
			c0,3.371-2.748,6.118-6.118,6.118h-4.83c-3.371,0-6.118-2.748-6.118-6.118v-10.948h17.067V224.282z"/>

		<path d="M379.947,162.133h-60.16c-6.938,0-12.587,5.649-12.587,12.587v26.027c0,6.938,5.649,12.587,12.587,12.587h60.16
			c6.938,0,12.587-5.649,12.587-12.587V174.72C392.533,167.782,386.884,162.133,379.947,162.133z M375.467,196.267h-51.2V179.2h51.2
			V196.267z"/>

		<path d="M366.933,42.667H332.8c-4.71,0-8.533,3.823-8.533,8.533v119.467c0,4.71,3.823,8.533,8.533,8.533h34.133
			c4.71,0,8.533-3.823,8.533-8.533V51.2C375.467,46.49,371.644,42.667,366.933,42.667z M358.4,162.133h-17.067v-102.4H358.4V162.133
			z"/>

		<path d="M366.933,196.267H332.8c-4.71,0-8.533,3.823-8.533,8.533v19.482c0,12.783,10.402,23.185,23.185,23.185h4.83
			c12.783,0,23.185-10.402,23.185-23.185V204.8C375.467,200.09,371.644,196.267,366.933,196.267z M358.4,224.282
			c0,3.371-2.748,6.118-6.118,6.118h-4.83c-3.371,0-6.118-2.748-6.118-6.118v-10.948H358.4V224.282z"/>

		<path d="M420.224,227.465c-3.789-0.981-7.74,0.768-9.6,4.207c-10.965,20.267-32.068,32.862-55.083,32.862H156.459
			c-23.014,0-44.117-12.595-55.083-32.862c-1.86-3.43-5.828-5.163-9.6-4.207c-3.789,0.956-6.443,4.361-6.443,8.269v233.6
			C85.333,492.86,104.474,512,128,512h256c23.526,0,42.667-19.14,42.667-42.667v-233.6
			C426.667,231.834,424.013,228.429,420.224,227.465z M409.6,469.333c0,14.114-11.486,25.6-25.6,25.6H128
			c-14.114,0-25.6-11.486-25.6-25.6V260.454c14.49,13.397,33.69,21.146,54.059,21.146h199.083c20.369,0,39.569-7.748,54.059-21.146
			V469.333z"/>

		<path d="M256,0c-18.825,0-34.133,15.309-34.133,34.133v34.133c0,4.71,3.823,8.533,8.533,8.533h51.2
			c4.71,0,8.533-3.823,8.533-8.533V34.133C290.133,15.309,274.825,0,256,0z M273.067,59.733h-34.133v-25.6
			c0-9.412,7.654-17.067,17.067-17.067c9.412,0,17.067,7.654,17.067,17.067V59.733z"/>

		<path d="M273.067,349.867h-34.133c-4.71,0-8.533,3.823-8.533,8.533v52.343c0,8.781,7.142,15.923,15.923,15.923h19.354
			c8.781,0,15.923-7.142,15.923-15.923V358.4C281.6,353.69,277.777,349.867,273.067,349.867z M264.533,409.6h-17.067v-42.667h17.067
			V409.6z"/>

		<path d="M375.441,315.733H136.55c-9.421,0-17.084,7.663-17.084,17.084v43.119c0,13.858,11.273,25.131,25.131,25.131h94.336
			c4.71,0,8.533-3.823,8.533-8.533v-25.6h17.067v25.6c0,4.71,3.823,8.533,8.533,8.533h94.336c13.858,0,25.131-11.273,25.131-25.131
			v-43.119C392.533,323.396,384.87,315.733,375.441,315.733z M367.403,384H281.6v-25.6c0-4.71-3.823-8.533-8.533-8.533h-34.133
			c-4.71,0-8.533,3.823-8.533,8.533V384h-85.803c-4.446,0-8.064-3.618-8.064-8.064l0.017-43.136H375.45l0.017,43.136
			C375.467,380.382,371.849,384,367.403,384z"/>

		<path d="M366.933,384h-93.867c-4.71,0-8.533,3.823-8.533,8.533V409.6h-17.067v-17.067c0-4.71-3.823-8.533-8.533-8.533h-93.867
			c-4.71,0-8.533,3.823-8.533,8.533v51.2c0,9.421,7.663,17.084,17.084,17.084h204.766c9.421,0,17.084-7.663,17.084-17.084v-51.2
			C375.467,387.823,371.644,384,366.933,384z M358.383,443.75L153.6,443.733v-42.667h76.8v9.677c0,8.781,7.142,15.923,15.923,15.923
			h19.354c8.781,0,15.923-7.142,15.923-15.923v-9.677h76.8L358.383,443.75z"/>

		<path d="M290.133,349.867h-68.267c-4.71,0-8.533,3.823-8.533,8.533s3.823,8.533,8.533,8.533h68.267
			c4.71,0,8.533-3.823,8.533-8.533S294.844,349.867,290.133,349.867z"/>

		<path d="M405.308,59.733h-38.374c-4.71,0-8.533,3.823-8.533,8.533v102.4c0,4.71,3.823,8.533,8.533,8.533h8.533v17.067h-8.533
			c-4.71,0-8.533,3.823-8.533,8.533v19.482c0,3.371-2.748,6.118-6.118,6.118h-4.83c-3.371,0-6.118-2.748-6.118-6.118V204.8
			c0-4.71-3.823-8.533-8.533-8.533h-8.533V179.2h8.533c4.71,0,8.533-3.823,8.533-8.533v-102.4c0-4.71-3.823-8.533-8.533-8.533H179.2
			c-4.71,0-8.533,3.823-8.533,8.533v102.4c0,4.71,3.823,8.533,8.533,8.533h8.533v17.067H179.2c-4.71,0-8.533,3.823-8.533,8.533
			v19.482c0,3.371-2.748,6.118-6.118,6.118h-4.83c-3.371,0-6.118-2.748-6.118-6.118V204.8c0-4.71-3.823-8.533-8.533-8.533h-8.533
			V179.2h8.533c4.71,0,8.533-3.823,8.533-8.533v-102.4c0-4.71-3.823-8.533-8.533-8.533h-38.366
			c-16.486,0-29.901,13.414-29.901,29.892v112.316c0,43.921,35.738,79.659,79.659,79.659h199.083
			c43.921,0,79.659-35.738,79.659-79.659V89.626C435.2,73.148,421.786,59.733,405.308,59.733z M418.133,201.941
			c0,34.509-28.083,62.592-62.592,62.592H156.459c-34.509,0-62.592-28.083-62.592-62.592V89.626c0-7.074,5.76-12.826,12.834-12.826
			h29.833v85.333h-4.48c-6.938,0-12.587,5.649-12.587,12.587v26.027c0,6.938,5.649,12.587,12.587,12.587h4.48v10.948
			c0,12.783,10.402,23.185,23.185,23.185h4.83c12.783,0,23.185-10.402,23.185-23.185v-10.948h4.48
			c6.938,0,12.587-5.649,12.587-12.587V174.72c0-6.938-5.649-12.587-12.587-12.587h-4.48V76.8h136.533v85.333h-4.48
			c-6.938,0-12.587,5.649-12.587,12.587v26.027c0,6.938,5.649,12.587,12.587,12.587h4.48v10.948
			c0,12.783,10.402,23.185,23.185,23.185h4.83c12.783,0,23.185-10.402,23.185-23.185v-10.948h4.48
			c6.938,0,12.587-5.649,12.587-12.587V174.72c0-6.938-5.649-12.587-12.587-12.587h-4.48V76.8h29.841
			c7.074,0,12.826,5.751,12.826,12.826V201.941z"/>

		<path d="M290.133,110.933h-68.267c-4.71,0-8.533,3.823-8.533,8.533V153.6c0,4.71,3.823,8.533,8.533,8.533h68.267
			c4.71,0,8.533-3.823,8.533-8.533v-34.133C298.667,114.756,294.844,110.933,290.133,110.933z M281.6,145.067h-51.2V128h51.2
			V145.067z"/>

		<path d="M93.867,298.667H62.43c-15.607,0-28.297,12.689-28.297,28.288v119.654c0,7.825,6.366,14.191,14.191,14.191h45.542
			c4.71,0,8.533-3.823,8.533-8.533V307.2C102.4,302.49,98.577,298.667,93.867,298.667z M85.333,443.733H51.2V326.955
			c0-6.187,5.035-11.221,11.23-11.221h22.903V443.733z"/>

		<path d="M93.867,298.667H62.43c-15.607,0-28.297,12.689-28.297,28.288v39.979c0,4.71,3.823,8.533,8.533,8.533h51.2
			c4.71,0,8.533-3.823,8.533-8.533V307.2C102.4,302.49,98.577,298.667,93.867,298.667z M85.333,358.4H51.2v-31.445
			c0-6.187,5.035-11.221,11.23-11.221h22.903V358.4z"/>

		<path d="M449.57,298.667h-31.437c-4.71,0-8.533,3.823-8.533,8.533v145.067c0,4.71,3.823,8.533,8.533,8.533h45.542
			c7.825,0,14.191-6.366,14.191-14.2V326.955C477.867,311.356,465.178,298.667,449.57,298.667z M460.8,443.733h-34.133v-128h22.903
			c6.195,0,11.23,5.035,11.23,11.221V443.733z"/>

		<path d="M449.57,298.667h-31.437c-4.71,0-8.533,3.823-8.533,8.533v59.733c0,4.71,3.823,8.533,8.533,8.533h51.2
			c4.71,0,8.533-3.823,8.533-8.533v-39.979C477.867,311.356,465.178,298.667,449.57,298.667z M460.8,358.4h-34.133v-42.667h22.903
			c6.195,0,11.23,5.035,11.23,11.221V358.4z"/>

</svg>
