<svg xmlns="http://www.w3.org/2000/svg" height="1165pt" version="1.1" viewBox="0 0 1165 1165.0006" >
<path d="M 1106.707031 194.195312 L 900.433594 194.195312 C 923.402344 135.15625 914.019531 75.757812 873.851562 37.089844 C 847.003906 12.457031 811.679688 -0.816406 775.25 0.0390625 L 775.117188 0.0390625 C 719.421875 1.503906 666.363281 24.210938 626.839844 63.492188 C 608.96875 80.5 593.976562 100.3125 582.480469 122.132812 C 570.992188 100.320312 556.019531 80.53125 538.167969 63.550781 C 498.636719 24.226562 445.570312 1.507812 389.828125 0.0390625 L 389.691406 0.0390625 C 353.28125 -0.816406 317.949219 12.457031 291.097656 37.089844 C 250.855469 75.757812 241.554688 135.15625 264.53125 194.195312 L 58.25 194.195312 C 26.085938 194.195312 0 220.28125 0 252.445312 L 0 524.265625 C 0 556.433594 26.085938 582.515625 58.25 582.515625 L 77.667969 582.515625 L 77.667969 1106.75 C 77.667969 1138.917969 103.742188 1165 135.914062 1165 L 1048.457031 1165 C 1069.90625 1165 1087.289062 1147.613281 1087.289062 1126.160156 L 1087.289062 582.515625 L 1126.125 582.515625 C 1147.5625 582.515625 1164.953125 565.128906 1164.953125 543.691406 L 1164.953125 252.445312 C 1164.953125 220.28125 1138.878906 194.195312 1106.707031 194.195312 Z M 658.726562 90.914062 C 688.679688 59.195312 729.878906 40.523438 773.472656 38.875 C 798.554688 38.03125 822.925781 47.351562 841.015625 64.757812 C 870.976562 94.617188 874.820312 145.660156 852.203125 194.195312 L 620.316406 194.195312 L 609.210938 180.355469 C 616.507812 146.296875 633.734375 115.171875 658.726562 90.914062 Z M 679.558594 1126.160156 L 485.398438 1126.160156 L 485.398438 233.03125 L 679.558594 233.03125 Z M 323.835938 64.757812 C 341.941406 47.351562 366.292969 38.03125 391.378906 38.875 C 435 40.523438 476.226562 59.226562 506.1875 90.964844 C 531.140625 115.191406 548.355469 146.269531 555.625 180.289062 L 544.609375 194.195312 L 312.75 194.195312 C 290.136719 145.660156 293.980469 94.617188 323.835938 64.757812 Z M 38.828125 524.265625 L 38.828125 252.445312 C 38.828125 241.726562 47.523438 233.03125 58.25 233.03125 L 446.570312 233.03125 L 446.570312 543.691406 L 58.25 543.691406 C 47.523438 543.691406 38.828125 534.992188 38.828125 524.265625 Z M 135.914062 1126.160156 C 125.191406 1126.160156 116.5 1117.472656 116.5 1106.75 L 116.5 582.515625 L 446.570312 582.515625 L 446.570312 1126.160156 Z M 1048.457031 1106.75 C 1048.457031 1117.472656 1039.761719 1126.160156 1029.039062 1126.160156 L 718.390625 1126.160156 L 718.390625 582.515625 L 1048.457031 582.515625 Z M 1126.125 524.265625 C 1126.125 534.992188 1117.433594 543.691406 1106.707031 543.691406 L 718.390625 543.691406 L 718.390625 233.03125 L 1106.707031 233.03125 C 1117.433594 233.03125 1126.125 241.726562 1126.125 252.445312 Z M 1126.125 524.265625 " fill="#fff" />
</svg>